<?xml version="1.0"?>
<svg xmlns="http://www.w3.org/2000/svg" id="Layer_1" enable-background="new 0 0 511.999 511.999" height="512px" viewBox="0 0 511.999 511.999" width="512px"><g><g><path d="m357.307 245.962c-5.991 13.638-14.53 26.18-25.379 37.03l-21.212-21.215c17.265-17.265 26.773-40.221 26.773-64.639v-19.921c0-46.794 24.414-87.218 59.509-105.667h-10.944c-33.09 0-66.733-11.569-93.659-30.801l-.005.027c-21.767-15.547-51.016-15.546-72.778-.001l-.05.057c-26.926 19.233-60.526 30.718-93.617 30.718h-10.943c35.095 18.449 59.509 58.872 59.509 105.667v19.921c0 24.418 9.509 47.374 26.774 64.64l-21.212 21.215c-10.85-10.85-19.39-23.393-25.381-37.031-15.889 24.595-40.062 41.848-67.801 46.391 2.877 7.363 4.775 18.62 4.775 39.53 0 10.979 1.378 21.963 4.011 32.716l160.322-59.379 160.182 59.327c2.726-10.75 4.152-21.716 4.152-32.664 0-23.684 2.247-33.417 5.59-39.4-28.08-4.335-52.571-21.685-68.616-46.521z" data-original="#000000" class="active-path" data-old_color="#000000" fill="#FFE529"/><path d="m255.999 337.213-150.228 55.64c7.405 15.559 17.565 30.067 30.128 42.652 30.496 30.552 72.656 47.378 118.714 47.378 46.128 0 88.729-16.776 119.959-47.237 13.03-12.71 23.561-27.32 31.227-42.952z" data-original="#000000" class="active-path" data-old_color="#000000" fill="#FFE529"/><path d="m511.999 177.217c0-47.604-32.413-86.333-72.255-86.333s-72.255 38.729-72.255 86.333 32.413 86.333 72.255 86.333 72.255-38.729 72.255-86.333zm-57.255 30.296h-30v-60.592h30z" data-original="#000000" class="active-path" data-old_color="#000000" fill="#FFE529"/><path d="m0 177.217c0 47.604 32.413 86.333 72.255 86.333s72.255-38.729 72.255-86.333-32.413-86.333-72.255-86.333-72.255 38.729-72.255 86.333zm57.255-30.296h30v60.592h-30z" data-original="#000000" class="active-path" data-old_color="#000000" fill="#FFE529"/></g></g> </svg>
